<svg xmlns="http://www.w3.org/2000/svg" xmlns:xlink="http://www.w3.org/1999/xlink" viewBox="0 0 400 225" width="401" height="401" preserveAspectRatio="xMidYMid meet" style="width: 100%; height: 100%; transform: translate3d(0px, 0px, 0px); content-visibility: visible;"><defs><clipPath id="__lottie_element_28"><rect width="400" height="225" x="0" y="0"/></clipPath><clipPath id="__lottie_element_30"><path d="M0,0 L50,0 L50,50 L0,50z"/></clipPath><clipPath id="__lottie_element_37"><path d="M0,0 L50,0 L50,50 L0,50z"/></clipPath><clipPath id="__lottie_element_44"><path d="M0,0 L342,0 L342,133 L0,133z"/></clipPath></defs><g clip-path="url(#__lottie_element_28)"><g transform="matrix(1,0,0,1,198,108.5)" opacity="1" style="display: block;"><g opacity="1" transform="matrix(1,0,0,1,0,0)"><path fill="rgb(227,134,63)" fill-opacity="1" d=" M14.782999992370605,87 C88.0459976196289,87 157.5,87 157.5,87 M-153.5,87 C-153.5,87 -81.62999725341797,87 -6.98799991607666,87"/><path stroke-linecap="round" stroke-linejoin="miter" fill-opacity="0" stroke-miterlimit="4" stroke="rgb(26,28,29)" stroke-opacity="0.63" stroke-width="3" d=" M14.782999992370605,87 C88.0459976196289,87 157.5,87 157.5,87 M-153.5,87 C-153.5,87 -81.62999725341797,87 -6.98799991607666,87"/></g></g><g clip-path="url(#__lottie_element_44)" transform="matrix(1,0,0,1,29,49.08363342285156)" opacity="1" style="display: block;"><g transform="matrix(1,0,0,1,0,20.5)" opacity="1" style="display: block;"><g opacity="1" transform="matrix(1,0,0,1,177.697998046875,82.19100189208984)"><path fill="rgb(32,38,43)" fill-opacity="1" d=" M120.16999816894531,-23.131000518798828 C120.16999816894531,-23.131000518798828 143.6510009765625,-4.626999855041504 143.6510009765625,-4.626999855041504 C143.6510009765625,-4.626999855041504 140.88900756835938,14.319000244140625 140.88900756835938,14.319000244140625 C140.88900756835938,14.319000244140625 130.79400634765625,25.538000106811523 130.79400634765625,25.538000106811523 C130.79400634765625,25.538000106811523 68.14399719238281,26.6560001373291 68.14399719238281,26.6560001373291 C68.14399719238281,26.6560001373291 -84.71499633789062,28.41900062561035 -84.71499633789062,28.41900062561035 C-84.71499633789062,28.41900062561035 -136.74400329589844,19.167999267578125 -136.74400329589844,19.167999267578125 C-136.74400329589844,19.167999267578125 -143.64999389648438,17.405000686645508 -143.64999389648438,17.405000686645508 C-143.64999389648438,17.405000686645508 -129.83799743652344,-16.52199935913086 -129.83799743652344,-16.52199935913086 C-129.83799743652344,-16.52199935913086 -85.1780014038086,-28.41900062561035 -85.1780014038086,-28.41900062561035 C-85.1780014038086,-28.41900062561035 120.16999816894531,-23.131000518798828 120.16999816894531,-23.131000518798828z"/></g><g opacity="1" transform="matrix(1,0,0,1,218.44500732421875,34.03200149536133)"><path fill="rgb(63,63,64)" fill-opacity="1" d=" M-26.011999130249023,-19.510000228881836 C-25.95400047302246,-19.48699951171875 4.258999824523926,-9.116999626159668 28.63800048828125,3.5329999923706055 C28.63800048828125,3.5329999923706055 36.604000091552734,9.611000061035156 34.53300094604492,13.984000205993652 C34.53300094604492,13.984000205993652 26.93600082397461,19.510000228881836 26.93600082397461,19.510000228881836 C26.93600082397461,19.510000228881836 -36.604000091552734,-13.755000114440918 -36.604000091552734,-13.755000114440918 C-36.604000091552734,-13.755000114440918 -30.844999313354492,-18.016000747680664 -30.844999313354492,-18.016000747680664 C-30.844999313354492,-18.016000747680664 -26.011999130249023,-19.510000228881836 -26.011999130249023,-19.510000228881836z"/></g><g opacity="1" transform="matrix(1,0,0,1,52.638999938964844,33.803001403808594)"><path fill="rgb(63,63,64)" fill-opacity="1" d=" M25.496000289916992,-15.597000122070312 C25.496000289916992,-15.597000122070312 -9.380000114440918,-2.4760000705718994 -17.554000854492188,3.3940000534057617 C-17.554000854492188,3.3940000534057617 -25.49799919128418,5.927000045776367 -25.49799919128418,5.927000045776367 C-25.49799919128418,5.927000045776367 -26.878999710083008,10.531999588012695 -26.878999710083008,10.531999588012695 C-26.878999710083008,10.531999588012695 -19.856000900268555,15.597000122070312 -19.856000900268555,15.597000122070312 C-19.856000900268555,15.597000122070312 26.878999710083008,-11.109000205993652 26.878999710083008,-11.109000205993652 C26.878999710083008,-11.109000205993652 25.496000289916992,-15.597000122070312 25.496000289916992,-15.597000122070312z"/></g><g opacity="1" transform="matrix(1,0,0,1,170.53500366210938,56.19200134277344)"><path fill="rgb(253,241,253)" fill-opacity="1" d=" M167.77699279785156,27.969999313354492 C170.28599548339844,20.66900062561035 167.6269989013672,15.342000007629395 165.11399841308594,9.425000190734863 C161.3489990234375,0.5559999942779541 92.39700317382812,-16.125999450683594 75.23300170898438,-19.34000015258789 C75.23300170898438,-19.34000015258789 82.24700164794922,-15.887999534606934 75.5790023803711,-9.668999671936035 C75.5790023803711,-9.668999671936035 29.650999069213867,-34.18600082397461 18.60099983215332,-38.67599868774414 C18.60099983215332,-38.67599868774414 22.05299949645996,-42.12900161743164 22.05299949645996,-42.12900161743164 C22.05299949645996,-42.12900161743164 -21.45599937438965,-55.941001892089844 -92.24400329589844,-37.98400115966797 C-92.24400329589844,-37.98400115966797 -92.24400329589844,-35.91299819946289 -92.24400329589844,-35.91299819946289 C-92.24400329589844,-35.91299819946289 -136.09800720214844,-13.121999740600586 -136.09800720214844,-13.121999740600586 C-136.09800720214844,-13.121999740600586 -145.46499633789062,-14.503999710083008 -135.4510040283203,-18.993999481201172 C-154.71400451660156,-12.789999961853027 -161.20399475097656,-12.437999725341797 -162.3419952392578,-8.979000091552734 C-162.3419952392578,-8.979000091552734 -161.9980010986328,9.668999671936035 -161.9980010986328,9.668999671936035 C-161.9980010986328,9.668999671936035 -161.9980010986328,15.192999839782715 -161.9980010986328,15.192999839782715 C-161.9980010986328,15.192999839782715 -170.28500366210938,18.301000595092773 -169.2480010986328,24.172000885009766 C-168.21299743652344,30.042999267578125 -166.48800659179688,35.222999572753906 -166.48800659179688,35.222999572753906 C-166.48800659179688,35.222999572753906 -164.75999450683594,36.257999420166016 -164.75999450683594,36.257999420166016 C-164.75999450683594,36.257999420166016 -164.0709991455078,43.5099983215332 -164.0709991455078,43.5099983215332 C-164.0709991455078,43.5099983215332 -146.65499877929688,53.21500015258789 -132.8419952392578,54.250999450683594 C-136.58799743652344,36.762001037597656 -130.16900634765625,19.461999893188477 -104.09400177001953,20.266000747680664 C-81.64600372314453,20.954999923706055 -77.3949966430664,44.20199966430664 -77.3949966430664,44.20199966430664 C-77.3949966430664,44.20199966430664 -77.0510025024414,53.869998931884766 -77.0510025024414,53.869998931884766 C-77.0510025024414,53.869998931884766 -76.70500183105469,55.941001892089844 -76.70500183105469,55.941001892089844 C-76.70500183105469,55.941001892089844 74.197998046875,53.178001403808594 74.197998046875,53.178001403808594 C74.197998046875,53.178001403808594 74.197998046875,46.617000579833984 74.197998046875,46.617000579833984 C74.197998046875,46.617000579833984 74.197998046875,44.54800033569336 74.197998046875,44.54800033569336 C74.197998046875,44.54800033569336 74.36599731445312,21.31599998474121 105.79000091552734,19.589000701904297 C137.21400451660156,17.863000869750977 136.406005859375,49.952999114990234 136.406005859375,49.952999114990234 C136.406005859375,49.952999114990234 137.0959930419922,54.78799819946289 137.0959930419922,54.78799819946289 C137.0959930419922,54.78799819946289 161.2429962158203,54.4900016784668 165.7570037841797,45.119998931884766 C165.7570037841797,45.119998931884766 166.05099487304688,32.112998962402344 167.77699279785156,27.969999313354492z"/></g><g opacity="1" transform="matrix(1,0,0,1,285.8590087890625,85.79499816894531)"><path fill="rgb(210,207,210)" fill-opacity="1" d=" M-48.76900100708008,23.71500015258789 C-48.76900100708008,23.71500015258789 -41.125999450683594,23.575000762939453 -41.125999450683594,23.575000762939453 C-41.125999450683594,23.575000762939453 -41.125999450683594,17.013999938964844 -41.125999450683594,17.013999938964844 C-41.125999450683594,17.013999938964844 -41.125999450683594,14.944000244140625 -41.125999450683594,14.944000244140625 C-41.125999450683594,14.944000244140625 -40.957000732421875,-8.286999702453613 -9.532999992370605,-10.013999938964844 C21.892000198364258,-11.741000175476074 21.083999633789062,20.35099983215332 21.083999633789062,20.35099983215332 C21.083999633789062,20.35099983215332 21.77400016784668,25.184999465942383 21.77400016784668,25.184999465942383 C21.77400016784668,25.184999465942383 45.91899871826172,24.88599967956543 50.433998107910156,15.515999794006348 C50.433998107910156,15.515999794006348 50.51599884033203,11.906999588012695 50.845001220703125,7.88700008392334 C50.845001220703125,7.88700008392334 30.280000686645508,10.857999801635742 30.280000686645508,10.857999801635742 C30.280000686645508,10.857999801635742 27.072999954223633,1.215999960899353 17.26099967956543,-7.874000072479248 C-1.4249999523162842,-25.184999465942383 -31.7810001373291,-20.517000198364258 -45.650001525878906,2.2269999980926514 C-49.25699996948242,8.142000198364258 -50.84400177001953,18.96500015258789 -50.84400177001953,18.96500015258789 C-50.84400177001953,18.96500015258789 -50.150001525878906,20.857999801635742 -48.76900100708008,23.71500015258789z"/></g><g opacity="1" transform="matrix(1,0,0,1,51.54499816894531,85.94499969482422)"><path fill="rgb(210,207,210)" fill-opacity="1" d=" M-43.007999420166016,-14.560999870300293 C-43.007999420166016,-14.560999870300293 -51.29499816894531,-11.454000473022461 -50.257999420166016,-5.581999778747559 C-49.222999572753906,0.289000004529953 -47.49700164794922,5.468999862670898 -47.49700164794922,5.468999862670898 C-47.49700164794922,5.468999862670898 -45.77000045776367,6.504000186920166 -45.77000045776367,6.504000186920166 C-45.77000045776367,6.504000186920166 -45.08100128173828,13.755999565124512 -45.08100128173828,13.755999565124512 C-45.08100128173828,13.755999565124512 -27.665000915527344,23.461000442504883 -13.85200023651123,24.49799919128418 C-16.444000244140625,8.019000053405762 -11.178999900817871,-10.291999816894531 14.895999908447266,-9.48799991607666 C37.34400177001953,-8.798999786376953 41.59600067138672,14.447999954223633 41.59600067138672,14.447999954223633 C41.59600067138672,14.447999954223633 41.810001373291016,20.472000122070312 41.810001373291016,20.472000122070312 C47.62900161743164,18.427000045776367 51.29499816894531,16.975000381469727 51.29499816894531,16.975000381469727 C45.70899963378906,-5.243000030517578 29.91900062561035,-24.499000549316406 4.545000076293945,-17.69099998474121 C-7.285999774932861,-14.517000198364258 -14.357000350952148,-4.416999816894531 -14.357000350952148,-4.416999816894531 C-14.357000350952148,-4.416999816894531 -21.860000610351562,-5.2829999923706055 -28.785999298095703,-7.880000114440918 C-35.71200180053711,-10.477999687194824 -43.007999420166016,-14.560999870300293 -43.007999420166016,-14.560999870300293z"/></g><g opacity="1" transform="matrix(1,0,0,1,169.18099975585938,106.48999786376953)"><path fill="rgb(210,207,210)" fill-opacity="1" d=" M75.96900177001953,-5.406000137329102 C75.96900177001953,-5.406000137329102 75.27899932861328,2.6480000019073486 75.27899932861328,2.6480000019073486 C75.27899932861328,2.6480000019073486 -75.0479965209961,5.638999938964844 -75.0479965209961,5.638999938964844 C-75.0479965209961,5.638999938964844 -75.50800323486328,3.569999933242798 -75.50800323486328,3.569999933242798 C-75.50800323486328,3.569999933242798 -75.96900177001953,-5.408999919891357 -75.96900177001953,-5.408999919891357 C-75.96900177001953,-5.408999919891357 -72.0530014038086,-5.638999938964844 -72.0530014038086,-5.638999938964844 C-72.0530014038086,-5.638999938964844 -67.22000122070312,-3.569000005722046 -67.22000122070312,-3.569000005722046 C-67.22000122070312,-3.569000005722046 67.22000122070312,-3.7980000972747803 67.22000122070312,-3.7980000972747803 C67.22000122070312,-3.7980000972747803 68.60199737548828,-5.638999938964844 68.60199737548828,-5.638999938964844 C68.60199737548828,-5.638999938964844 75.96900177001953,-5.406000137329102 75.96900177001953,-5.406000137329102z"/></g><g opacity="1" transform="matrix(1,0,0,1,327.3699951171875,90.4209976196289)"><path fill="rgb(205,197,205)" fill-opacity="1" d=" M11.230999946594238,-7.1519999504089355 C11.230999946594238,-7.1519999504089355 9.333999633789062,3.260999917984009 9.333999633789062,3.260999917984009 C9.333999633789062,3.260999917984009 -9.157999992370605,7.1519999504089355 -11.230999946594238,6.23199987411499 C-11.230999946594238,6.23199987411499 -9.732000350952148,-2.73799991607666 -9.732000350952148,-2.73799991607666 C-9.732000350952148,-2.73799991607666 8.930000305175781,-3.927999973297119 11.230999946594238,-7.1519999504089355z"/></g><g opacity="1" transform="matrix(1,0,0,1,319.2770080566406,65.83100128173828)"><path fill="rgb(227,134,63)" fill-opacity="1" d=" M13.468000411987305,0.2590000033378601 C13.468000411987305,0.2590000033378601 11.397000312805176,-3.191999912261963 8.979000091552734,-4.744999885559082 C8.979000091552734,-4.744999885559082 5.870999813079834,-4.920000076293945 0.5180000066757202,-3.5390000343322754 C-4.834000110626221,-2.1570000648498535 -8.461000442504883,-1.6390000581741333 -8.461000442504883,-1.6390000581741333 C-8.461000442504883,-1.6390000581741333 -14.156999588012695,-0.25999999046325684 -5.869999885559082,2.3289999961853027 C2.4170000553131104,4.920000076293945 7.942999839782715,4.748000144958496 11.050000190734863,3.194999933242798 C14.156999588012695,1.6399999856948853 13.468000411987305,0.2590000033378601 13.468000411987305,0.2590000033378601z"/></g><g opacity="1" transform="matrix(1,0,0,1,149.84300231933594,34.17599868774414)"><path fill="rgb(63,63,64)" fill-opacity="1" d=" M90.01000213623047,18.104000091552734 C90.01000213623047,18.104000091552734 18.875999450683594,15.800000190734863 18.875999450683594,15.800000190734863 C18.875999450683594,15.800000190734863 5.191999912261963,15.388999938964844 -12.100000381469727,14.883000373840332 C-7.10099983215332,-4.11899995803833 -8.043999671936035,-1.2630000114440918 -2.4189999103546143,-18.104000091552734 C21.4689998626709,-18.038000106811523 31.996999740600586,-13.89799976348877 31.996999740600586,-13.89799976348877 C53.63999938964844,-7.452000141143799 90.01000213623047,18.104000091552734 90.01000213623047,18.104000091552734z M-14.50100040435791,-17.812000274658203 C-46.9630012512207,-16.200000762939453 -58.4739990234375,-9.984999656677246 -66.06999969482422,-6.302000045776367 C-66.06999969482422,-6.302000045776367 -77.58000183105469,1.065999984741211 -80.572998046875,3.828000068664551 C-80.572998046875,3.828000068664551 -90.01000213623047,13.03600025177002 -81.49299621582031,13.03600025177002 C-76.61199951171875,13.03600025177002 -44.358001708984375,13.944000244140625 -17.709999084472656,14.718999862670898 C-17.709999084472656,14.718999862670898 -8.281999588012695,-18.040000915527344 -8.281999588012695,-18.040000915527344 C-10.274999618530273,-17.992000579833984 -12.345999717712402,-17.91900062561035 -14.50100040435791,-17.812000274658203z"/></g><g opacity="1" transform="matrix(1,0,0,1,164.83599853515625,60.07400131225586)"><path fill="rgb(87,89,91)" fill-opacity="1" d=" M-8.718000411987305,0 C-8.718000411987305,0.8100000023841858 -4.816999912261963,1.4670000076293945 -0.0010000000474974513,1.4670000076293945 C4.815000057220459,1.4670000076293945 8.718000411987305,0.8100000023841858 8.718000411987305,0 C8.718000411987305,-0.8100000023841858 4.815000057220459,-1.4670000076293945 -0.0010000000474974513,-1.4670000076293945 C-4.816999912261963,-1.4670000076293945 -8.718000411987305,-0.8100000023841858 -8.718000411987305,0z"/></g><g opacity="1" transform="matrix(1,0,0,1,82.30500030517578,56.62200164794922)"><path fill="rgb(87,89,91)" fill-opacity="1" d=" M-8.718999862670898,-0.0010000000474974513 C-8.718999862670898,0.8109999895095825 -4.815000057220459,1.468000054359436 0,1.468000054359436 C4.815000057220459,1.468000054359436 8.718999862670898,0.8109999895095825 8.718999862670898,-0.0010000000474974513 C8.718999862670898,-0.8109999895095825 4.815000057220459,-1.468000054359436 0,-1.468000054359436 C-4.815000057220459,-1.468000054359436 -8.718999862670898,-0.8109999895095825 -8.718999862670898,-0.0010000000474974513z"/></g><g opacity="1" transform="matrix(1,0,0,1,16.468000411987305,60.64500045776367)"><path fill="rgb(255,112,0)" fill-opacity="1" d=" M-8.157999992370605,-7.034999847412109 C-9.88599967956543,-2.6589999198913574 -7.859000205993652,5.446000099182129 -7.859000205993652,5.446000099182129 C-5.788000106811523,5.9039998054504395 2.7360000610351562,7.046999931335449 5.151000022888184,5.436999797821045 C8.696000099182129,3.075000047683716 9.88599967956543,-4.709000110626221 5.3979997634887695,-5.978000164031982 C2.0179998874664307,-6.929999828338623 -3.9519999027252197,-7.047999858856201 -6.698999881744385,-7.047999858856201 C-7.603000164031982,-7.047999858856201 -8.157999992370605,-7.034999847412109 -8.157999992370605,-7.034999847412109z M-12.526000022888184,-6.533999919891357 C-12.526000022888184,-6.533999919891357 -9.166000366210938,10.75100040435791 -9.166000366210938,10.75100040435791 C-9.166000366210938,10.75100040435791 12.526000022888184,6.533999919891357 12.526000022888184,6.533999919891357 C12.526000022888184,6.533999919891357 9.166000366210938,-10.75100040435791 9.166000366210938,-10.75100040435791 C9.166000366210938,-10.75100040435791 -12.526000022888184,-6.533999919891357 -12.526000022888184,-6.533999919891357z"/></g><g opacity="1" transform="matrix(1,0,0,1,232.7030029296875,49.2760009765625)"><path fill="rgb(208,205,208)" fill-opacity="1" d=" M-8.520999908447266,5.715000152587891 C-5.445000171661377,6.579999923706055 7.0980000495910645,5.775000095367432 7.822999954223633,3.134999990463257 C8.579999923706055,0.37599998712539673 -2.306999921798706,-6.579999923706055 -8.579000473022461,-5.986000061035156 C-8.579000473022461,-5.986000061035156 -8.520999908447266,5.715000152587891 -8.520999908447266,5.715000152587891z"/></g><g opacity="1" transform="matrix(1,0,0,1,336.8210144042969,73.66500091552734)"><path fill="rgb(127,127,127)" fill-opacity="1" d=" M-2.8919999599456787,-5.422999858856201 C-3.002000093460083,-1.1480000019073486 -1.9930000305175781,8.5 -0.4560000002384186,8.527000427246094 C1.0800000429153442,8.553999900817871 2.2790000438690186,7.642000198364258 2.306999921798706,7.199999809265137 C3.002000093460083,-3.506999969482422 -1.3289999961853027,-8.354000091552734 -1.3289999961853027,-8.354000091552734 C-1.3289999961853027,-8.354000091552734 -1.5460000038146973,-8.553999900817871 -1.8179999589920044,-8.553999900817871 C-2.250999927520752,-8.553999900817871 -2.8239998817443848,-8.04800033569336 -2.8919999599456787,-5.422999858856201z M-3.002000093460083,-8.553999900817871 C-3.002000093460083,-8.553999900817871 -3.002000093460083,8.553999900817871 -3.002000093460083,8.553999900817871 C-3.002000093460083,8.553999900817871 3.002000093460083,8.553999900817871 3.002000093460083,8.553999900817871 C3.002000093460083,8.553999900817871 3.002000093460083,-8.553999900817871 3.002000093460083,-8.553999900817871 C3.002000093460083,-8.553999900817871 -3.002000093460083,-8.553999900817871 -3.002000093460083,-8.553999900817871z"/></g></g></g><g clip-path="url(#__lottie_element_37)" transform="matrix(0.8734891414642334,-0.48684364557266235,0.48684364557266235,0.8734891414642334,58.74168014526367,162.0838623046875)" opacity="1" style="display: block;"><g transform="matrix(0.8799999952316284,0,0,0.8799999952316284,-1.3999996185302734,-1.3999996185302734)" opacity="1" style="display: block;"><g opacity="1" transform="matrix(1,0,0,1,29.833999633789062,30.124000549316406)"><path fill="rgb(87,89,91)" fill-opacity="1" d=" M0.10300000011920929,-20.554000854492188 C-11.246999740600586,-20.610000610351562 -20.496000289916992,-11.45199966430664 -20.552000045776367,-0.10199999809265137 C-20.608999252319336,11.25 -11.45300006866455,20.4950008392334 -0.10199999809265137,20.551000595092773 C11.24899959564209,20.608999252319336 20.496999740600586,11.45300006866455 20.552000045776367,0.10199999809265137 C20.608999252319336,-11.24899959564209 11.454000473022461,-20.496999740600586 0.10300000011920929,-20.554000854492188z"/></g><g opacity="1" transform="matrix(1,0,0,1,29.97800064086914,28.040000915527344)"><path fill="rgb(227,134,63)" fill-opacity="1" d=" M0,-18.357999801635742 C0,-18.357999801635742 -4.535999774932861,-4.304999828338623 -4.535999774932861,-4.304999828338623 C-4.535999774932861,-4.304999828338623 -19.30299949645996,-4.334000110626221 -19.30299949645996,-4.334000110626221 C-19.30299949645996,-4.334000110626221 -7.340000152587891,4.322999954223633 -7.340000152587891,4.322999954223633 C-7.340000152587891,4.322999954223633 -11.930000305175781,18.357999801635742 -11.930000305175781,18.357999801635742 C-11.930000305175781,18.357999801635742 0,9.656000137329102 0,9.656000137329102 C0,9.656000137329102 11.930999755859375,18.357999801635742 11.930999755859375,18.357999801635742 C11.930999755859375,18.357999801635742 7.340000152587891,4.322999954223633 7.340000152587891,4.322999954223633 C7.340000152587891,4.322999954223633 19.30299949645996,-4.334000110626221 19.30299949645996,-4.334000110626221 C19.30299949645996,-4.334000110626221 4.5370001792907715,-4.304999828338623 4.5370001792907715,-4.304999828338623 C4.5370001792907715,-4.304999828338623 0,-18.357999801635742 0,-18.357999801635742z"/></g><g opacity="1" transform="matrix(1,0,0,1,29.979000091552734,29.979000091552734)"><path fill="rgb(54,56,57)" fill-opacity="1" d=" M19.030000686645508,19.2189998626709 C29.643999099731445,8.708999633789062 29.729000091552734,-8.414999961853027 19.2189998626709,-19.030000686645508 C8.710000038146973,-29.645000457763672 -8.414999961853027,-29.729000091552734 -19.030000686645508,-19.219999313354492 C-29.643999099731445,-8.710000038146973 -29.729000091552734,8.413999557495117 -19.2189998626709,19.02899932861328 C-8.710000038146973,29.643999099731445 8.413999557495117,29.729000091552734 19.030000686645508,19.2189998626709z M-13.861000061035156,-13.99899959564209 C-6.129000186920166,-21.65399932861328 6.3429999351501465,-21.591999053955078 13.99899959564209,-13.861000061035156 C21.65399932861328,-6.129000186920166 21.591999053955078,6.343999862670898 13.861000061035156,14 C6.129000186920166,21.655000686645508 -6.343999862670898,21.591999053955078 -14,13.861000061035156 C-21.655000686645508,6.129000186920166 -21.591999053955078,-6.34499979019165 -13.861000061035156,-13.99899959564209z"/></g><g opacity="1" transform="matrix(1,0,0,1,29.979000091552734,29.97800064086914)"><path fill="rgb(247,122,27)" fill-opacity="1" d=" M0.026000000536441803,-5.297999858856201 C2.9519999027252197,-5.2829999923706055 5.311999797821045,-2.9000000953674316 5.296999931335449,0.026000000536441803 C5.2829999923706055,2.9519999027252197 2.8989999294281006,5.310999870300293 -0.027000000700354576,5.297999858856201 C-2.9519999027252197,5.2829999923706055 -5.311999797821045,2.9000000953674316 -5.296999931335449,-0.026000000536441803 C-5.283999919891357,-2.9509999752044678 -2.9000000953674316,-5.311999797821045 0.026000000536441803,-5.297999858856201z"/></g><g opacity="1" transform="matrix(1,0,0,1,29.97800064086914,29.979000091552734)"><path fill="rgb(227,134,63)" fill-opacity="1" d=" M14.00100040435791,-13.861000061035156 C21.655000686645508,-6.129000186920166 21.591999053955078,6.343999862670898 13.861000061035156,13.99899959564209 C6.129000186920166,21.65399932861328 -6.3429999351501465,21.593000411987305 -13.99899959564209,13.862000465393066 C-21.65399932861328,6.130000114440918 -21.591999053955078,-6.3460001945495605 -13.861000061035156,-14 C-6.127999782562256,-21.655000686645508 6.343999862670898,-21.593000411987305 14.00100040435791,-13.861000061035156z M21.562999725341797,-0.0010000000474974513 C21.562999725341797,-11.90999984741211 11.90999984741211,-21.562000274658203 0.0010000000474974513,-21.562000274658203 C-11.907999992370605,-21.562000274658203 -21.562000274658203,-11.90999984741211 -21.562000274658203,-0.0010000000474974513 C-21.562000274658203,11.907999992370605 -11.907999992370605,21.56100082397461 0.0010000000474974513,21.56100082397461 C11.90999984741211,21.56100082397461 21.562999725341797,11.907999992370605 21.562999725341797,-0.0010000000474974513z"/></g><g opacity="1" transform="matrix(1,0,0,1,29.756000518798828,16.124000549316406)"><path fill="rgb(255,142,58)" fill-opacity="1" d=" M2.239000082015991,-7.058000087738037 C2.2920000553131104,-7.610000133514404 4.760000228881836,7.610000133514404 4.760000228881836,7.610000133514404 C4.760000228881836,7.610000133514404 -4.760000228881836,7.609000205993652 -4.760000228881836,7.609000205993652 C-4.760000228881836,7.609000205993652 -2.184999942779541,-6.695000171661377 -2.2360000610351562,-7.130000114440918 C-2.2850000858306885,-7.565000057220459 2.239000082015991,-7.058000087738037 2.239000082015991,-7.058000087738037z"/></g><g opacity="1" transform="matrix(1,0,0,1,42.402000427246094,26.98200035095215)"><path fill="rgb(227,134,63)" fill-opacity="1" d=" M7.53000020980835,-1.0880000591278076 C8.055999755859375,-1.1970000267028809 -5.3460001945495605,5.423999786376953 -5.3460001945495605,5.423999786376953 C-5.3460001945495605,5.423999786376953 -8.055000305175781,-3.3980000019073486 -8.055000305175781,-3.3980000019073486 C-8.055000305175781,-3.3980000019073486 5.934000015258789,-5.083000183105469 6.322999954223633,-5.252999782562256 C6.710999965667725,-5.422999858856201 7.53000020980835,-1.0880000591278076 7.53000020980835,-1.0880000591278076z"/></g><g opacity="1" transform="matrix(1,0,0,1,36.643001556396484,40.33300018310547)"><path fill="rgb(227,134,63)" fill-opacity="1" d=" M3.0250000953674316,7.553999900817871 C3.2809998989105225,8.027000427246094 -6.935999870300293,-2.880000114440918 -6.935999870300293,-2.880000114440918 C-6.935999870300293,-2.880000114440918 0.718999981880188,-8.027000427246094 0.718999981880188,-8.027000427246094 C0.718999981880188,-8.027000427246094 6.385000228881836,4.869999885559082 6.660999774932861,5.191999912261963 C6.935999870300293,5.514999866485596 3.0250000953674316,7.553999900817871 3.0250000953674316,7.553999900817871z"/></g><g opacity="1" transform="matrix(1,0,0,1,22.858999252319336,40.41600036621094)"><path fill="rgb(227,134,63)" fill-opacity="1" d=" M-6.992000102996826,5.053999900817871 C-7.36299991607666,5.464000225067139 -0.23600000143051147,-8.163000106811523 -0.23600000143051147,-8.163000106811523 C-0.23600000143051147,-8.163000106811523 7.36299991607666,-2.4730000495910645 7.36299991607666,-2.4730000495910645 C7.36299991607666,-2.4730000495910645 -3.243000030517578,7.409999847412109 -3.4630000591278076,7.7870001792907715 C-3.681999921798706,8.163999557495117 -6.992000102996826,5.053999900817871 -6.992000102996826,5.053999900817871z"/></g><g opacity="1" transform="matrix(1,0,0,1,17.358999252319336,27.075000762939453)"><path fill="rgb(227,134,63)" fill-opacity="1" d=" M-6.311999797821045,-5.421000003814697 C-6.811999797821045,-5.639999866485596 8.178000450134277,-3.259999990463257 8.178000450134277,-3.259999990463257 C8.178000450134277,-3.259999990463257 5.248000144958496,5.639999866485596 5.248000144958496,5.639999866485596 C5.248000144958496,5.639999866485596 -7.334000110626221,-1.1729999780654907 -7.75600004196167,-1.2610000371932983 C-8.178000450134277,-1.347000002861023 -6.311999797821045,-5.421000003814697 -6.311999797821045,-5.421000003814697z"/></g></g></g><g clip-path="url(#__lottie_element_30)" transform="matrix(0.8734891414642334,-0.48684364557266235,0.48684364557266235,0.8734891414642334,268.7416687011719,162.0838623046875)" opacity="1" style="display: block;"><g transform="matrix(0.8799999952316284,0,0,0.8799999952316284,-1.3999996185302734,-1.3999996185302734)" opacity="1" style="display: block;"><g opacity="1" transform="matrix(1,0,0,1,29.833999633789062,30.124000549316406)"><path fill="rgb(87,89,91)" fill-opacity="1" d=" M0.10300000011920929,-20.554000854492188 C-11.246999740600586,-20.610000610351562 -20.496000289916992,-11.45199966430664 -20.552000045776367,-0.10199999809265137 C-20.608999252319336,11.25 -11.45300006866455,20.4950008392334 -0.10199999809265137,20.551000595092773 C11.24899959564209,20.608999252319336 20.496999740600586,11.45300006866455 20.552000045776367,0.10199999809265137 C20.608999252319336,-11.24899959564209 11.454000473022461,-20.496999740600586 0.10300000011920929,-20.554000854492188z"/></g><g opacity="1" transform="matrix(1,0,0,1,29.97800064086914,28.040000915527344)"><path fill="rgb(227,134,63)" fill-opacity="1" d=" M0,-18.357999801635742 C0,-18.357999801635742 -4.535999774932861,-4.304999828338623 -4.535999774932861,-4.304999828338623 C-4.535999774932861,-4.304999828338623 -19.30299949645996,-4.334000110626221 -19.30299949645996,-4.334000110626221 C-19.30299949645996,-4.334000110626221 -7.340000152587891,4.322999954223633 -7.340000152587891,4.322999954223633 C-7.340000152587891,4.322999954223633 -11.930000305175781,18.357999801635742 -11.930000305175781,18.357999801635742 C-11.930000305175781,18.357999801635742 0,9.656000137329102 0,9.656000137329102 C0,9.656000137329102 11.930999755859375,18.357999801635742 11.930999755859375,18.357999801635742 C11.930999755859375,18.357999801635742 7.340000152587891,4.322999954223633 7.340000152587891,4.322999954223633 C7.340000152587891,4.322999954223633 19.30299949645996,-4.334000110626221 19.30299949645996,-4.334000110626221 C19.30299949645996,-4.334000110626221 4.5370001792907715,-4.304999828338623 4.5370001792907715,-4.304999828338623 C4.5370001792907715,-4.304999828338623 0,-18.357999801635742 0,-18.357999801635742z"/></g><g opacity="1" transform="matrix(1,0,0,1,29.979000091552734,29.979000091552734)"><path fill="rgb(54,56,57)" fill-opacity="1" d=" M19.030000686645508,19.2189998626709 C29.643999099731445,8.708999633789062 29.729000091552734,-8.414999961853027 19.2189998626709,-19.030000686645508 C8.710000038146973,-29.645000457763672 -8.414999961853027,-29.729000091552734 -19.030000686645508,-19.219999313354492 C-29.643999099731445,-8.710000038146973 -29.729000091552734,8.413999557495117 -19.2189998626709,19.02899932861328 C-8.710000038146973,29.643999099731445 8.413999557495117,29.729000091552734 19.030000686645508,19.2189998626709z M-13.861000061035156,-13.99899959564209 C-6.129000186920166,-21.65399932861328 6.3429999351501465,-21.591999053955078 13.99899959564209,-13.861000061035156 C21.65399932861328,-6.129000186920166 21.591999053955078,6.343999862670898 13.861000061035156,14 C6.129000186920166,21.655000686645508 -6.343999862670898,21.591999053955078 -14,13.861000061035156 C-21.655000686645508,6.129000186920166 -21.591999053955078,-6.34499979019165 -13.861000061035156,-13.99899959564209z"/></g><g opacity="1" transform="matrix(1,0,0,1,29.979000091552734,29.97800064086914)"><path fill="rgb(247,122,27)" fill-opacity="1" d=" M0.026000000536441803,-5.297999858856201 C2.9519999027252197,-5.2829999923706055 5.311999797821045,-2.9000000953674316 5.296999931335449,0.026000000536441803 C5.2829999923706055,2.9519999027252197 2.8989999294281006,5.310999870300293 -0.027000000700354576,5.297999858856201 C-2.9519999027252197,5.2829999923706055 -5.311999797821045,2.9000000953674316 -5.296999931335449,-0.026000000536441803 C-5.283999919891357,-2.9509999752044678 -2.9000000953674316,-5.311999797821045 0.026000000536441803,-5.297999858856201z"/></g><g opacity="1" transform="matrix(1,0,0,1,29.97800064086914,29.979000091552734)"><path fill="rgb(227,134,63)" fill-opacity="1" d=" M14.00100040435791,-13.861000061035156 C21.655000686645508,-6.129000186920166 21.591999053955078,6.343999862670898 13.861000061035156,13.99899959564209 C6.129000186920166,21.65399932861328 -6.3429999351501465,21.593000411987305 -13.99899959564209,13.862000465393066 C-21.65399932861328,6.130000114440918 -21.591999053955078,-6.3460001945495605 -13.861000061035156,-14 C-6.127999782562256,-21.655000686645508 6.343999862670898,-21.593000411987305 14.00100040435791,-13.861000061035156z M21.562999725341797,-0.0010000000474974513 C21.562999725341797,-11.90999984741211 11.90999984741211,-21.562000274658203 0.0010000000474974513,-21.562000274658203 C-11.907999992370605,-21.562000274658203 -21.562000274658203,-11.90999984741211 -21.562000274658203,-0.0010000000474974513 C-21.562000274658203,11.907999992370605 -11.907999992370605,21.56100082397461 0.0010000000474974513,21.56100082397461 C11.90999984741211,21.56100082397461 21.562999725341797,11.907999992370605 21.562999725341797,-0.0010000000474974513z"/></g><g opacity="1" transform="matrix(1,0,0,1,29.756000518798828,16.124000549316406)"><path fill="rgb(255,142,58)" fill-opacity="1" d=" M2.239000082015991,-7.058000087738037 C2.2920000553131104,-7.610000133514404 4.760000228881836,7.610000133514404 4.760000228881836,7.610000133514404 C4.760000228881836,7.610000133514404 -4.760000228881836,7.609000205993652 -4.760000228881836,7.609000205993652 C-4.760000228881836,7.609000205993652 -2.184999942779541,-6.695000171661377 -2.2360000610351562,-7.130000114440918 C-2.2850000858306885,-7.565000057220459 2.239000082015991,-7.058000087738037 2.239000082015991,-7.058000087738037z"/></g><g opacity="1" transform="matrix(1,0,0,1,42.402000427246094,26.98200035095215)"><path fill="rgb(227,134,63)" fill-opacity="1" d=" M7.53000020980835,-1.0880000591278076 C8.055999755859375,-1.1970000267028809 -5.3460001945495605,5.423999786376953 -5.3460001945495605,5.423999786376953 C-5.3460001945495605,5.423999786376953 -8.055000305175781,-3.3980000019073486 -8.055000305175781,-3.3980000019073486 C-8.055000305175781,-3.3980000019073486 5.934000015258789,-5.083000183105469 6.322999954223633,-5.252999782562256 C6.710999965667725,-5.422999858856201 7.53000020980835,-1.0880000591278076 7.53000020980835,-1.0880000591278076z"/></g><g opacity="1" transform="matrix(1,0,0,1,36.643001556396484,40.33300018310547)"><path fill="rgb(227,134,63)" fill-opacity="1" d=" M3.0250000953674316,7.553999900817871 C3.2809998989105225,8.027000427246094 -6.935999870300293,-2.880000114440918 -6.935999870300293,-2.880000114440918 C-6.935999870300293,-2.880000114440918 0.718999981880188,-8.027000427246094 0.718999981880188,-8.027000427246094 C0.718999981880188,-8.027000427246094 6.385000228881836,4.869999885559082 6.660999774932861,5.191999912261963 C6.935999870300293,5.514999866485596 3.0250000953674316,7.553999900817871 3.0250000953674316,7.553999900817871z"/></g><g opacity="1" transform="matrix(1,0,0,1,22.858999252319336,40.41600036621094)"><path fill="rgb(227,134,63)" fill-opacity="1" d=" M-6.992000102996826,5.053999900817871 C-7.36299991607666,5.464000225067139 -0.23600000143051147,-8.163000106811523 -0.23600000143051147,-8.163000106811523 C-0.23600000143051147,-8.163000106811523 7.36299991607666,-2.4730000495910645 7.36299991607666,-2.4730000495910645 C7.36299991607666,-2.4730000495910645 -3.243000030517578,7.409999847412109 -3.4630000591278076,7.7870001792907715 C-3.681999921798706,8.163999557495117 -6.992000102996826,5.053999900817871 -6.992000102996826,5.053999900817871z"/></g><g opacity="1" transform="matrix(1,0,0,1,17.358999252319336,27.075000762939453)"><path fill="rgb(227,134,63)" fill-opacity="1" d=" M-6.311999797821045,-5.421000003814697 C-6.811999797821045,-5.639999866485596 8.178000450134277,-3.259999990463257 8.178000450134277,-3.259999990463257 C8.178000450134277,-3.259999990463257 5.248000144958496,5.639999866485596 5.248000144958496,5.639999866485596 C5.248000144958496,5.639999866485596 -7.334000110626221,-1.1729999780654907 -7.75600004196167,-1.2610000371932983 C-8.178000450134277,-1.347000002861023 -6.311999797821045,-5.421000003814697 -6.311999797821045,-5.421000003814697z"/></g></g></g></g></svg>